<svg xmlns="http://www.w3.org/2000/svg" width="147" height="50" viewBox="0 0 147 50">
    <g fill="none" fill-rule="evenodd">
        <rect width="147" height="50" fill="#5B4663" rx="12"/>
        <path fill="#FFF" d="M56.931 36.557H54.43l-1.37-4.32h-4.765l-1.306 4.32h-2.436l4.72-14.709h2.916l4.743 14.71zm-4.286-6.133h-3.937l1.217-3.84c.32-1.222.553-2.146.697-2.772h.044c.362 1.455.608 2.379.74 2.771l1.239 3.84zm16.425.7c0 1.803-.486 3.23-1.458 4.276-.87.932-1.951 1.397-3.241 1.397-1.393 0-2.393-.502-3.003-1.505h-.044v5.587h-2.349V29.442c0-1.134-.03-2.297-.087-3.491h2.066l.131 1.681h.044c.784-1.267 1.972-1.899 3.568-1.899 1.247 0 2.288.494 3.121 1.483.836.99 1.252 2.293 1.252 3.908zm-2.393.086c0-1.033-.231-1.884-.696-2.553-.508-.699-1.19-1.048-2.045-1.048-.58 0-1.107.194-1.577.578-.472.387-.78.892-.925 1.517-.072.292-.109.53-.109.719v1.768c0 .772.236 1.423.708 1.954.471.532 1.084.797 1.838.797.884 0 1.573-.342 2.065-1.025.494-.685.74-1.586.74-2.707zm14.554-.086c0 1.803-.486 3.23-1.459 4.276-.869.932-1.95 1.397-3.24 1.397-1.393 0-2.393-.502-3.002-1.505h-.044v5.587h-2.349V29.442c0-1.134-.03-2.297-.087-3.491h2.066l.131 1.681h.044c.783-1.267 1.972-1.899 3.568-1.899 1.246 0 2.288.494 3.123 1.483.832.99 1.25 2.293 1.25 3.908zm-2.393.086c0-1.033-.232-1.884-.697-2.553-.508-.699-1.188-1.048-2.044-1.048-.581 0-1.107.194-1.578.578a2.68 2.68 0 0 0-.924 1.517c-.071.292-.109.53-.109.719v1.768c0 .772.236 1.423.706 1.954.471.53 1.084.797 1.84.797.884 0 1.573-.342 2.066-1.025.493-.685.74-1.586.74-2.707zm15.99 1.222c0 1.251-.433 2.27-1.302 3.055-.956.859-2.285 1.288-3.994 1.288-1.578 0-2.843-.305-3.8-.916l.544-1.965a6.425 6.425 0 0 0 3.395.94c.885 0 1.574-.201 2.069-.601.492-.4.738-.938.738-1.607 0-.597-.203-1.1-.61-1.508-.404-.408-1.08-.787-2.022-1.137-2.568-.96-3.85-2.368-3.85-4.218 0-1.21.45-2.2 1.35-2.972.896-.773 2.093-1.158 3.59-1.158 1.334 0 2.442.233 3.327.698l-.587 1.921c-.827-.45-1.761-.676-2.807-.676-.826 0-1.472.204-1.935.61a1.749 1.749 0 0 0-.587 1.333 1.8 1.8 0 0 0 .673 1.44c.391.35 1.102.727 2.133 1.135 1.262.51 2.189 1.105 2.785 1.788.594.681.89 1.533.89 2.55zm7.767-4.713h-2.59v5.15c0 1.31.457 1.964 1.371 1.964.42 0 .768-.037 1.044-.11l.065 1.79c-.463.173-1.072.26-1.827.26-.928 0-1.653-.283-2.176-.85-.521-.568-.784-1.521-.784-2.86v-5.346h-1.542V25.95h1.542v-1.942l2.308-.699v2.64h2.59v1.771zm11.683 3.448c0 1.63-.465 2.968-1.393 4.015-.973 1.078-2.264 1.615-3.874 1.615-1.551 0-2.786-.516-3.708-1.549-.92-1.032-1.381-2.335-1.381-3.906 0-1.643.474-2.99 1.424-4.036.95-1.048 2.23-1.572 3.84-1.572 1.55 0 2.8.516 3.741 1.55.901 1.002 1.351 2.297 1.351 3.883zm-2.437.076c0-.978-.209-1.817-.63-2.517-.493-.846-1.197-1.269-2.11-1.269-.944 0-1.661.424-2.154 1.27-.422.7-.63 1.552-.63 2.56 0 .978.208 1.817.63 2.516.508.846 1.218 1.269 2.134 1.269.897 0 1.6-.431 2.109-1.291.433-.713.65-1.561.65-2.538zm10.073-3.22a4.067 4.067 0 0 0-.74-.065c-.827 0-1.466.313-1.916.94-.39.552-.587 1.25-.587 2.094v5.565h-2.348l.022-7.266c0-1.222-.03-2.335-.088-3.339h2.046l.086 2.03h.065c.248-.698.64-1.26 1.175-1.68a2.835 2.835 0 0 1 1.698-.569c.217 0 .413.016.587.043v2.247zm10.506 2.73c0 .421-.028.777-.086 1.068h-7.047c.027 1.048.368 1.85 1.022 2.402.594.494 1.362.741 2.305.741 1.044 0 1.996-.167 2.852-.501l.368 1.635c-1 .438-2.182.656-3.545.656-1.64 0-2.926-.484-3.863-1.451-.934-.968-1.403-2.266-1.403-3.895 0-1.6.436-2.932 1.307-3.994.913-1.134 2.146-1.7 3.697-1.7 1.524 0 2.677.566 3.46 1.7.621.901.933 2.015.933 3.338zm-2.24-.612c.015-.699-.138-1.302-.456-1.812-.407-.655-1.032-.982-1.872-.982-.768 0-1.393.32-1.87.96-.391.51-.624 1.121-.695 1.833h4.893v.001zM51.868 12.8c0 1.3-.389 2.28-1.166 2.937-.72.607-1.742.91-3.066.91-.657 0-1.219-.028-1.69-.085V9.454c.614-.1 1.276-.15 1.99-.15 1.261 0 2.212.275 2.853.825.719.622 1.08 1.512 1.08 2.67zm-1.217.031c0-.843-.223-1.49-.668-1.94-.445-.45-1.095-.676-1.952-.676-.363 0-.673.025-.93.075v5.404c.143.022.403.032.78.032.884 0 1.566-.246 2.047-.74.48-.492.723-1.21.723-2.155zm7.673 1.105c0 .8-.228 1.457-.684 1.973-.479.529-1.112.793-1.903.793-.763 0-1.37-.253-1.823-.761-.452-.508-.677-1.148-.677-1.92 0-.806.232-1.468.7-1.982.466-.514 1.094-.771 1.886-.771.762 0 1.375.253 1.839.76.44.493.662 1.13.662 1.908zm-1.198.037c0-.48-.103-.893-.31-1.237-.242-.415-.587-.623-1.035-.623-.464 0-.817.208-1.06.623-.206.344-.309.763-.309 1.258 0 .481.104.893.31 1.237.25.416.598.623 1.048.623.44 0 .786-.21 1.035-.634.214-.35.321-.766.321-1.247zm9.854-2.6l-1.625 5.21h-1.058l-.673-2.262c-.171-.564-.31-1.126-.418-1.683h-.02c-.101.573-.24 1.133-.418 1.683l-.716 2.263h-1.07l-1.528-5.21h1.187l.587 2.477c.142.585.26 1.143.353 1.672h.02c.087-.436.229-.99.43-1.661l.737-2.487h.94l.707 2.434c.17.593.31 1.164.416 1.715h.032c.079-.536.196-1.108.353-1.715l.63-2.434h1.134v-.001zm5.986 5.21h-1.154V13.6c0-.92-.349-1.38-1.047-1.38-.343 0-.62.126-.834.38-.213.252-.32.55-.32.892v3.09h-1.156v-3.72c0-.457-.014-.953-.042-1.49h1.015l.054.814h.032c.135-.253.335-.462.599-.629a1.947 1.947 0 0 1 1.046-.293c.485 0 .888.157 1.209.472.399.386.598.962.598 1.727v3.12zm2.031-7.6h1.154v7.6h-1.154v-7.6zm7.952 4.953c0 .8-.228 1.457-.684 1.973-.478.529-1.113.793-1.903.793-.764 0-1.37-.253-1.823-.761-.451-.508-.677-1.148-.677-1.92 0-.806.232-1.468.7-1.982.467-.514 1.095-.771 1.885-.771.763 0 1.375.253 1.84.76.44.493.662 1.13.662 1.908zm-1.199.037c0-.48-.103-.893-.31-1.237-.24-.415-.587-.623-1.034-.623-.465 0-.818.208-1.059.623-.207.344-.31.763-.31 1.258 0 .481.104.893.31 1.237.25.416.598.623 1.048.623.44 0 .786-.21 1.035-.634.214-.35.32-.766.32-1.247zm6.788 2.61H87.5l-.086-.6h-.032c-.355.48-.86.72-1.517.72-.49 0-.887-.159-1.186-.473a1.482 1.482 0 0 1-.406-1.06c0-.638.264-1.123.796-1.459.531-.336 1.278-.5 2.24-.493v-.097c0-.686-.359-1.029-1.078-1.029-.513 0-.965.13-1.355.386l-.234-.76c.482-.3 1.078-.45 1.781-.45 1.358 0 2.039.718 2.039 2.155v1.919c0 .52.025.935.075 1.242zm-1.2-1.79v-.803c-1.273-.022-1.91.328-1.91 1.05 0 .272.073.475.222.611a.806.806 0 0 0 .564.203c.253 0 .49-.08.706-.24a.987.987 0 0 0 .419-.82zm7.761 1.79h-1.025l-.053-.836h-.032c-.328.637-.885.955-1.669.955-.626 0-1.147-.246-1.56-.74-.413-.492-.62-1.132-.62-1.918 0-.843.225-1.526.674-2.048.435-.486.969-.73 1.603-.73.698 0 1.186.236 1.464.708h.022V8.983h1.155v6.197c0 .507.014.975.041 1.404zm-1.196-2.196v-.87a1.32 1.32 0 0 0-.45-1.067 1.133 1.133 0 0 0-.772-.283c-.431 0-.768.172-1.016.515-.246.344-.37.783-.37 1.319 0 .515.117.933.354 1.254.25.343.588.514 1.01.514.379 0 .682-.142.912-.429a1.43 1.43 0 0 0 .332-.953zm11.072-.451c0 .8-.228 1.457-.684 1.973-.478.529-1.11.793-1.903.793-.761 0-1.369-.253-1.823-.761-.451-.508-.677-1.148-.677-1.92 0-.806.232-1.468.7-1.982.467-.514 1.095-.771 1.887-.771.761 0 1.375.253 1.838.76.44.493.662 1.13.662 1.908zm-1.197.037c0-.48-.103-.893-.31-1.237-.243-.415-.586-.623-1.036-.623-.463 0-.815.208-1.059.623-.207.344-.31.763-.31 1.258 0 .481.104.893.31 1.237.25.416.598.623 1.048.623.44 0 .788-.21 1.037-.634.213-.35.32-.766.32-1.247zm7.406 2.61h-1.154V13.6c0-.92-.348-1.38-1.047-1.38-.343 0-.62.126-.833.38-.214.252-.321.55-.321.892v3.09h-1.156v-3.72c0-.457-.013-.953-.04-1.49h1.013l.054.814h.032c.135-.253.336-.462.598-.629a1.951 1.951 0 0 1 1.048-.293c.484 0 .887.157 1.208.472.4.386.598.962.598 1.727v3.12zm7.771-4.342h-1.271v2.531c0 .644.226.965.673.965.207 0 .38-.017.515-.054l.03.879c-.229.086-.528.13-.897.13-.457 0-.811-.14-1.068-.419-.258-.278-.386-.747-.386-1.405v-2.627h-.759v-.867h.76v-.955l1.13-.343v1.297h1.272v.868h.001zm6.113 4.343h-1.155v-2.962c0-.934-.349-1.402-1.046-1.402-.536 0-.901.271-1.102.813a1.46 1.46 0 0 0-.054.416v3.134h-1.153v-7.6h1.153v3.14h.022c.364-.571.885-.857 1.56-.857.479 0 .874.157 1.188.472.391.393.587.976.587 1.748v3.098zm6.306-2.852c0 .208-.015.383-.043.525h-3.463c.016.515.181.908.502 1.18.293.243.67.364 1.133.364.513 0 .98-.081 1.4-.246l.182.804c-.493.215-1.073.322-1.744.322-.804 0-1.437-.238-1.896-.713-.46-.475-.688-1.113-.688-1.913 0-.786.212-1.44.64-1.962.448-.557 1.053-.835 1.817-.835.747 0 1.314.278 1.698.835.31.442.462.99.462 1.64zm-1.101-.3a1.563 1.563 0 0 0-.224-.889c-.2-.322-.506-.483-.92-.483-.376 0-.683.157-.918.472-.192.25-.305.55-.343.9h2.405zM30.706 24.062c.036 4.303 3.755 5.726 3.8 5.741-.022.1-.582 2.054-1.977 4.037-1.164 1.745-2.385 3.452-4.323 3.483-1.882.044-2.515-1.11-4.675-1.11-2.179 0-2.853 1.079-4.66 1.154-1.845.068-3.255-1.864-4.462-3.594-2.413-3.533-4.29-9.955-1.772-14.326 1.22-2.143 3.444-3.523 5.823-3.56 1.848-.038 3.562 1.25 4.698 1.25 1.113 0 3.234-1.541 5.42-1.31.914.026 3.517.362 5.196 2.816-.136.081-3.1 1.828-3.068 5.419zm-3.556-10.56c-1.014 1.2-2.635 2.116-4.214 1.998-.207-1.617.593-3.337 1.489-4.387 1.012-1.19 2.77-2.103 4.176-2.166.184 1.681-.48 3.338-1.451 4.556z"/>
    </g>
</svg>
