<svg xmlns="http://www.w3.org/2000/svg" width="147" height="50" viewBox="0 0 147 50">
    <defs>
        <linearGradient id="a" x1="50%" x2="50%" y1="0%" y2="100%">
            <stop offset="0%" stop-color="#1E79AF"/>
            <stop offset="100%" stop-color="#63FFD3"/>
        </linearGradient>
        <linearGradient id="b" x1="84.718%" x2="5.244%" y1="14.446%" y2="96.562%">
            <stop offset="0%" stop-color="#DC4057"/>
            <stop offset="100%" stop-color="#9E36BB"/>
        </linearGradient>
        <linearGradient id="c" x1="50%" x2="50%" y1="0%" y2="97.826%">
            <stop offset="0%" stop-color="#FF9676"/>
            <stop offset="100%" stop-color="#FFD074"/>
        </linearGradient>
        <linearGradient id="d" x1="17.444%" y1="0%" y2="100%">
            <stop offset="0%" stop-color="#51C6AD"/>
            <stop offset="100%" stop-color="#D5FFA1"/>
        </linearGradient>
    </defs>
    <g fill="none" fill-rule="evenodd">
        <rect width="147" height="50" fill="#5B4663" rx="12"/>
        <path fill="url(#a)" d="M.92-.15C.506-.02.238.404.238 1.046L.24 21.227c0 .635.26 1.052.662 1.191l11.17-11.293L.92-.15" transform="translate(10.985 20.55)"/>
        <path fill="url(#b)" d="M.902 22.418c.29.1.653.053 1.049-.166l13.631-7.579-3.51-3.548L.903 22.418" transform="translate(10.985 20.55)"/>
        <path fill="url(#c)" d="M15.584 14.673l4.648-2.584c.943-.525.943-1.38 0-1.905L15.567 7.59l-3.494 3.533 3.511 3.55" transform="translate(10.985 20.55)"/>
        <path fill="url(#d)" d="M15.566 7.59L1.951.022C1.565-.192 1.209-.241.92-.15l11.152 11.273 3.493-3.533" transform="translate(10.985 20.55)"/>
        <path fill="#FFF" d="M50.949 36.611l-2.887.669c-1.17.186-2.22.35-3.333.35-5.568 0-7.69-4.144-7.69-7.387 0-3.96 3.007-7.632 8.155-7.632 1.09 0 2.137.162 3.092.425 1.513.43 2.22.96 2.663 1.27l-1.677 1.61-.707.16.504-.812c-.683-.674-1.938-1.919-4.32-1.919-3.185 0-5.588 2.448-5.588 6.021 0 3.838 2.744 7.448 7.143 7.448 1.293 0 1.959-.263 2.563-.508v-3.29l-3.048.166 1.615-.877h4.278l-.523.509c-.14.12-.16.162-.2.325-.02.186-.04.776-.04.984v2.488zm6.62.756c-3.423 0-5.252-2.695-5.252-5.135 0-2.85 2.303-5.29 5.577-5.29 3.164 0 5.144 2.506 5.144 5.137 0 2.57-1.957 5.288-5.469 5.288zm2.694-1.761c.516-.697.645-1.567.645-2.414 0-1.918-.906-5.574-3.574-5.574-.713 0-1.42.28-1.937.739-.842.761-.992 1.719-.992 2.658 0 2.15 1.056 5.698 3.662 5.698.84 0 1.698-.412 2.196-1.107zm8.766 1.76c-3.423 0-5.254-2.694-5.254-5.134 0-2.85 2.302-5.29 5.577-5.29 3.166 0 5.148 2.506 5.148 5.137 0 2.57-1.96 5.288-5.471 5.288zm2.693-1.76c.52-.697.647-1.567.647-2.414 0-1.918-.904-5.574-3.574-5.574-.71 0-1.426.28-1.941.739-.841.761-.991 1.719-.991 2.658 0 2.15 1.051 5.698 3.661 5.698.843 0 1.702-.412 2.198-1.107zM82.38 28.01c.494.41 1.526 1.283 1.526 2.937 0 1.612-.899 2.372-1.806 3.091-.278.284-.603.59-.603 1.065 0 .482.325.744.56.938l.777.607c.946.807 1.808 1.547 1.808 3.05 0 2.048-1.96 4.113-5.665 4.113-3.12 0-4.629-1.502-4.629-3.113 0-.784.386-1.894 1.66-2.655 1.335-.825 3.143-.935 4.112-1-.302-.395-.648-.808-.648-1.483 0-.369.11-.589.216-.848-.235.022-.473.046-.688.046-2.284 0-3.575-1.723-3.575-3.42 0-1.001.452-2.112 1.38-2.917 1.227-1.022 2.691-1.198 3.854-1.198h4.438l-1.38.787H82.38zm-1.526 9.664c-.177-.023-.283-.023-.496-.023-.195 0-1.358.043-2.26.348-.476.176-1.854.697-1.854 2.243 0 1.543 1.488 2.656 3.789 2.656 2.067 0 3.165-1.002 3.165-2.35 0-1.11-.71-1.697-2.344-2.874zm.619-4.136c.498-.503.541-1.197.541-1.591 0-1.566-.923-4.004-2.713-4.004-.559 0-1.163.283-1.507.72-.364.454-.473 1.043-.473 1.609 0 1.457.84 3.875 2.69 3.875.54 0 1.121-.265 1.462-.61zm6.792 1.916c0 .846.15.978.857 1.044.369.044.736.063 1.1.107l-.796.48H85.63c.498-.653.583-.718.583-1.153v-.486l-.008-12.944H84.53l1.613-.785h3.08c-.668.39-.867.629-.953 1.39l-.005 12.347zm10.585.169l-1.03.982c-.238.132-.475.286-.711.395-.716.328-1.443.411-2.09.411-.687 0-1.766-.045-2.866-.85-1.528-1.088-2.196-2.959-2.196-4.589 0-3.375 2.717-5.03 4.934-5.03.775 0 1.57.196 2.218.61 1.076.718 1.354 1.653 1.508 2.154l-5.062 2.067-1.658.13c.537 2.768 2.389 4.378 4.435 4.378 1.022 0 1.781-.338 2.477-.685 0 0 .14-.074.04.027zm-3.054-5.505c.41-.151.624-.281.624-.585 0-.87-.973-1.874-2.134-1.874-.86 0-2.476.678-2.476 3.03 0 .367.044.758.066 1.149l3.92-1.72zm9.26 5.598v5.544h-1.089V27.152h1.09v1.607c.71-1.039 2.006-1.862 3.512-1.862 2.7 0 4.52 2.072 4.52 5.35 0 3.258-1.82 5.373-4.52 5.373-1.422 0-2.696-.742-3.512-1.903zm6.863-3.47c0-2.47-1.274-4.356-3.534-4.356-1.403 0-2.745 1.115-3.328 2.087v4.517c.583.974 1.925 2.13 3.328 2.13 2.26 0 3.534-1.902 3.534-4.377zm2.658-8.99h1.088v14.109h-1.088v-14.11zm10.13 14.078a19.146 19.146 0 0 1-.169-.927 6.285 6.285 0 0 1-.052-.796c-.373.554-.902 1.016-1.578 1.379-.677.365-1.32.545-2.2.545-1.062 0-1.885-.264-2.473-.8-.586-.534-.88-1.259-.88-2.175 0-.916.426-1.659 1.278-2.227.85-.571 1.95-.855 3.313-.855h2.54v-1.27c0-.73-.246-1.305-.738-1.722-.494-.417-1.187-.628-2.086-.628-.821 0-1.487.193-1.994.568-.503.384-.757.858-.757 1.43h-1.114l-.023-.054c-.04-.772.308-1.448 1.05-2.033.74-.584 1.708-.877 2.899-.877 1.187 0 2.148.289 2.873.866.723.57 1.086 1.396 1.086 2.474v5.038c0 .362.018.712.062 1.053.046.34.12.682.217 1.011h-1.255zm-3.866-.802c.925 0 1.59-.21 2.27-.623.675-.41 1.134-.947 1.375-1.596v-1.961h-2.553c-.975 0-1.782.218-2.417.658-.636.439-.958.97-.958 1.587 0 .583.204 1.048.61 1.401.407.357.963.534 1.673.534zm7.047 3.816c.233.105.63.17.882.17.666 0 1.13-.276 1.547-1.248l.795-1.82-4.291-10.299h1.215l3.68 8.925 3.645-8.925h1.233l-5.234 12.46c-.543 1.284-1.397 1.9-2.57 1.9-.353 0-.817-.062-1.09-.147l.188-1.016zM36.958 11.623c0-2.191 1.624-3.6 3.644-3.6 1.353 0 2.237.647 2.79 1.44l-.99.574a2.238 2.238 0 0 0-1.8-.928c-1.374 0-2.395 1.043-2.395 2.514 0 1.45 1.021 2.514 2.395 2.514.708 0 1.332-.323 1.644-.626v-1.074h-2.081v-1.075h3.289v2.598a3.746 3.746 0 0 1-2.852 1.273c-2.02 0-3.644-1.429-3.644-3.61zm8.002 3.475v-6.96h4.757v1.075h-3.54v1.794h3.467v1.075h-3.467v1.94h3.54v1.076H44.96zm8.126 0V9.213h-2.102V8.137h5.423v1.076h-2.103v5.885h-1.218zm7.553-6.96h1.218v6.96h-1.218v-6.96zm4.61 6.96V9.213h-2.103V8.137h5.423v1.076h-2.103v5.885h-1.218zm7.25-3.475c0-2.077 1.468-3.6 3.55-3.6 2.07 0 3.55 1.523 3.55 3.6 0 2.076-1.48 3.6-3.55 3.6-2.082 0-3.55-1.524-3.55-3.6zm5.85 0c0-1.44-.905-2.514-2.3-2.514-1.405 0-2.3 1.074-2.3 2.514 0 1.429.895 2.514 2.3 2.514 1.395 0 2.3-1.085 2.3-2.514zm7.512 3.475l-3.623-4.978v4.978h-1.217v-6.96h1.249l3.55 4.82v-4.82h1.217v6.96h-1.176z"/>
    </g>
</svg>
