<svg xmlns="http://www.w3.org/2000/svg" width="355" height="180" viewBox="0 0 355 180">
    <g fill-rule="nonzero" fill="#5b4663">
        <path d="M-543-2505H897V180H-543z"/>
        <g fill-rule="evenodd"  fill="#eee6e4">
            <path d="M158.661 115.084v-7.924l-3.743 5.92-3.757-5.92v7.924h-1.467v-10.333h1.68l3.64 5.871 3.625-5.87h1.49v10.332z"/>
            <path d="M151.14 107.084v7.978h-1.424v-10.289h1.644l3.652 5.891 3.636-5.89h1.456v10.288h-1.423v-7.978l-3.763 5.956zM165.866 115.278c-2.104 0-3.689-1.75-3.689-4.067 0-2.318 1.588-4.051 3.69-4.051a3.171 3.171 0 0 1 2.626 1.304v-1.11h1.452v7.733h-1.452v-1.156a3.162 3.162 0 0 1-2.627 1.347zm.206-6.742c-1.395 0-2.445 1.148-2.445 2.666s1.075 2.69 2.445 2.69c1.37 0 2.428-1.156 2.428-2.69 0-1.533-1.042-2.666-2.428-2.666z"/>
            <path d="M168.524 113.86a3.141 3.141 0 0 1-2.658 1.396c-2.055 0-3.667-1.718-3.667-4.045 0-2.28 1.55-4.029 3.667-4.029a3.14 3.14 0 0 1 2.658 1.35v-1.159h1.408v7.69h-1.408v-1.203zm0-2.649c0-1.509-1.027-2.698-2.45-2.698-1.423 0-2.467 1.19-2.467 2.698 0 1.509 1.044 2.711 2.467 2.711s2.45-1.22 2.45-2.71zM181.824 105.889a1.103 1.103 0 0 1-1.095-1.111c0-.614.49-1.111 1.095-1.111.604 0 1.094.497 1.094 1.11a1.12 1.12 0 0 1-1.094 1.112z"/>
            <path d="M181.824 105.867c.595 0 1.077-.49 1.077-1.094 0-.603-.482-1.093-1.077-1.093s-1.077.49-1.077 1.093c.01.6.486 1.084 1.077 1.094zM181.106 107.351h1.451v7.733h-1.451z"/>
            <path d="M181.128 107.373h1.407v7.69h-1.407zM190.458 115.084v-4.5c0-1.264-.724-2.048-1.891-2.048s-1.876.784-1.876 2.048v4.5h-1.452v-7.735h1.452v.889c.49-.705 1.289-1.091 2.254-1.091 1.8 0 2.965 1.255 2.965 3.2v4.726l-1.452.011z"/>
            <path d="M186.67 115.062h-1.407v-7.689h1.408v.95c.475-.723 1.28-1.14 2.277-1.14 1.786 0 2.942 1.235 2.942 3.177v4.704h-1.408v-4.48c0-1.27-.726-2.07-1.913-2.07s-1.898.802-1.898 2.07v4.478zM197.523 118.931c-1.373 0-2.491-.34-3.24-.984l-.015-.014.733-1.16.02.014c.701.523 1.55.803 2.421.797 1.607 0 2.494-.888 2.494-2.48v-1.353a3.176 3.176 0 0 1-2.628 1.318c-2.066 0-3.627-1.7-3.627-3.953 0-2.254 1.559-3.925 3.627-3.925a3.215 3.215 0 0 1 2.628 1.258v-1.1h1.436v7.671c0 2.487-1.404 3.911-3.849 3.911zm.015-10.395c-1.375 0-2.408 1.11-2.408 2.562 0 1.45 1.06 2.595 2.408 2.595 1.349 0 2.409-1.11 2.409-2.595s-1.047-2.562-2.409-2.562z"/>
            <path d="M197.442 117.607c1.598 0 2.515-.867 2.515-2.503v-1.422a3.15 3.15 0 0 1-2.657 1.365c-2.025 0-3.606-1.67-3.606-3.931 0-2.263 1.58-3.903 3.606-3.903a3.18 3.18 0 0 1 2.657 1.303v-1.14h1.393v7.648c0 2.843-1.771 3.885-3.827 3.885-1.392 0-2.5-.353-3.225-.98l.712-1.125a4.034 4.034 0 0 0 2.432.803zm2.515-6.51c0-1.428-1.011-2.584-2.419-2.584-1.407 0-2.434 1.156-2.434 2.585s1.027 2.618 2.434 2.618c1.408 0 2.42-1.172 2.42-2.618zM216.764 115.044l-2.37-8.417-2.387 8.417h-1.74l-3.271-10.333h1.627l2.528 8.467 2.389-8.467h1.819l2.404 8.482 2.528-8.482h1.55l-3.27 10.333z"/>
            <path d="M221.81 104.733l-3.257 10.29h-1.773l-2.386-8.476-2.409 8.475h-1.7l-3.258-10.289h1.58l2.553 8.525 2.408-8.522h1.787l2.419 8.54 2.546-8.54zM225.828 115.278c-2.104 0-3.691-1.75-3.691-4.067 0-2.318 1.587-4.051 3.691-4.051a3.171 3.171 0 0 1 2.627 1.304v-1.11h1.452v7.733h-1.452v-1.156a3.162 3.162 0 0 1-2.627 1.347zm.206-6.742c-1.395 0-2.446 1.148-2.446 2.666s1.075 2.69 2.446 2.69c1.37 0 2.428-1.183 2.428-2.69 0-1.506-1.04-2.666-2.415-2.666h-.013z"/>
            <path d="M228.488 113.86a3.141 3.141 0 0 1-2.66 1.396c-2.056 0-3.67-1.718-3.67-4.045 0-2.28 1.55-4.029 3.67-4.029a3.14 3.14 0 0 1 2.658 1.35v-1.159h1.408v7.69h-1.408l.002-1.203zm0-2.649c0-1.509-1.029-2.698-2.45-2.698-1.42 0-2.467 1.19-2.467 2.698 0 1.509 1.042 2.711 2.467 2.711s2.45-1.22 2.45-2.71zM234.364 115.084l-2.879-7.733h1.596l2.246 6.36 2.277-6.36h1.489l-2.881 7.733z"/>
            <path d="M239.06 107.373l-2.864 7.69h-1.817l-2.859-7.69h1.55l2.262 6.405 2.292-6.405zM244.051 115.278a3.882 3.882 0 0 1-2.853-1.167 4.003 4.003 0 0 1-1.14-2.9c0-2.271 1.655-4.051 3.77-4.051s3.755 1.716 3.755 3.907a2.29 2.29 0 0 1-.048.517v.016h-6.006c.171 1.416 1.2 2.364 2.568 2.364.784.01 1.54-.293 2.104-.844l.018-.018.77 1.014-.013.013c-.656.72-1.749 1.149-2.925 1.149zm2.047-4.667c-.218-1.371-1.06-2.189-2.252-2.189-1.193 0-2.06.858-2.284 2.19h4.536z"/>
            <path d="M240.08 111.211c0-2.222 1.598-4.029 3.748-4.029 2.15 0 3.733 1.718 3.733 3.885.003.172-.013.344-.048.513h-6.008c.158 1.38 1.154 2.409 2.592 2.409.79.01 1.551-.295 2.12-.851l.744.98c-.617.666-1.692 1.14-2.91 1.14a3.878 3.878 0 0 1-2.832-1.167 3.998 3.998 0 0 1-1.139-2.88zm1.456-.578h4.587c-.22-1.429-1.095-2.222-2.277-2.222-1.233-.011-2.104.938-2.31 2.222zM251.88 115.278c-1.313 0-2.408-.445-3.054-1.26l-.01-.016.849-.964.015.02a2.845 2.845 0 0 0 2.294 1.02c.894 0 1.448-.416 1.448-1.087 0-.762-.821-1.027-1.774-1.333-1.178-.38-2.513-.811-2.513-2.342 0-1.038.863-2.156 2.756-2.156 1.294 0 2.301.424 2.833 1.198v.015l-.876.89-.015-.02c-.477-.605-1.07-.876-1.926-.876-.821 0-1.37.384-1.37.957 0 .7.79.943 1.705 1.223 1.217.373 2.596.795 2.596 2.422.028 1.398-1.14 2.309-2.958 2.309z"/>
            <path d="M254.845 112.96c0 1.3-1.06 2.296-2.956 2.296-1.392 0-2.437-.498-3.036-1.252l.82-.93a2.873 2.873 0 0 0 2.31 1.026c.948 0 1.47-.444 1.47-1.111 0-1.749-4.285-.947-4.285-3.676 0-1.124.965-2.133 2.734-2.133 1.296 0 2.295.433 2.816 1.189l-.839.849c-.506-.64-1.123-.89-1.944-.89-.856 0-1.392.419-1.392.98 0 1.66 4.302.81 4.302 3.652zM177.557 115.084l-2.39-3.453-1.133 1.236v2.217h-1.451v-11.088h1.451v6.69l3.142-3.484 1.973-.006-2.976 3.297 3.177 4.591z"/>
            <path d="M176.145 110.491l2.953-3.273-1.913.006-3.175 3.52v-6.726h-1.405v11.044h1.405v-2.202l1.16-1.262 2.4 3.464h1.738zM109.909 119.678h5.626l-8.978-19.547-2.816 6.125zM119.325 119.678h5.626l-8.978-19.547-2.813 6.125zM102.413 114.982c-1.31.017-2.358 1.105-2.347 2.434.011 1.329 1.078 2.398 2.387 2.393 1.31-.006 2.368-1.085 2.368-2.413-.017-1.338-1.09-2.414-2.408-2.414zM129.179 100.131l8.978 19.547 2.815-6.127-6.167-13.42zM119.763 100.131l8.978 19.547 2.813-6.127-6.165-13.42zM142.299 100c-1.31.017-2.358 1.105-2.347 2.434.011 1.329 1.078 2.398 2.388 2.392 1.309-.005 2.367-1.084 2.367-2.413-.017-1.338-1.09-2.413-2.408-2.413z"/>
        </g>
    </g>
</svg>
